<?xml version="1.0" standalone="no"?>
<!DOCTYPE svg PUBLIC "-//W3C//DTD SVG 20010904//EN"
 "http://www.w3.org/TR/2001/REC-SVG-20010904/DTD/svg10.dtd">
<svg version="1.0" xmlns="http://www.w3.org/2000/svg"
 width="700.000000pt" height="700.000000pt" viewBox="0 0 700.000000 700.000000"
 preserveAspectRatio="xMidYMid meet">
<metadata>
Created by potrace 1.14, written by Peter Selinger 2001-2017
</metadata>
<g transform="translate(0.000000,700.000000) scale(0.100000,-0.100000)"
fill="#000000" stroke="none">
<path d="M3830 6211 c-36 -10 -123 -36 -195 -59 -71 -22 -227 -70 -345 -107
-271 -83 -364 -127 -446 -209 -112 -112 -149 -232 -164 -524 -9 -170 -10 -174
-38 -210 -46 -58 -54 -80 -53 -141 0 -41 8 -71 29 -112 l29 -56 -34 -44 c-18
-24 -42 -61 -53 -81 -21 -39 -40 -147 -34 -189 2 -13 6 -46 9 -73 5 -40 15
-58 52 -98 l46 -49 -51 -47 c-45 -42 -52 -53 -52 -86 0 -21 14 -68 30 -106 17
-38 31 -79 32 -92 1 -13 -15 -64 -35 -114 -46 -113 -46 -143 -5 -206 l31 -50
-31 -61 c-44 -86 -44 -137 1 -182 20 -20 48 -36 71 -40 35 -7 37 -9 31 -37 -4
-17 0 -48 11 -78 21 -58 16 -67 -61 -111 -68 -39 -118 -38 -207 3 -63 29 -72
30 -116 21 -35 -8 -66 -8 -120 1 -115 20 -196 -5 -227 -71 -14 -29 -21 -33
-53 -33 -94 0 -228 -55 -280 -115 -41 -46 -49 -78 -28 -121 9 -19 16 -36 16
-38 0 -2 -42 -20 -94 -40 -162 -63 -221 -121 -220 -216 0 -31 7 -68 16 -86 26
-48 79 -93 123 -106 22 -6 43 -14 47 -17 7 -6 -121 -66 -391 -183 -73 -32
-148 -66 -166 -77 l-33 -19 -6 21 c-3 12 -6 34 -6 49 0 35 -13 42 -35 18 -12
-14 -14 -20 -5 -20 10 0 10 -3 0 -15 -20 -24 -32 -17 -25 15 4 17 3 30 -1 30
-4 0 -27 -16 -51 -36 -27 -22 -50 -34 -59 -30 -13 5 -15 1 -10 -20 6 -22 4
-25 -13 -19 -17 5 -19 2 -14 -36 5 -37 4 -42 -11 -36 -10 4 -20 7 -22 7 -2 0
-2 11 2 25 3 14 2 25 -4 25 -13 0 -22 -25 -22 -60 0 -16 -4 -32 -10 -35 -6 -4
-10 8 -10 29 0 41 -9 45 -34 17 -16 -17 -16 -25 -6 -56 6 -20 9 -44 5 -53 -5
-13 -9 -9 -18 18 -14 42 -31 45 -35 7 -2 -15 1 -27 7 -27 6 0 11 -9 11 -21 0
-31 30 -20 49 18 17 32 98 93 126 93 11 0 14 6 9 25 -5 21 -3 25 16 25 18 0
21 4 16 24 -4 15 0 28 9 36 13 11 15 8 15 -16 0 -30 15 -62 24 -53 3 3 1 21
-4 40 -15 50 -13 69 5 45 10 -13 22 -17 41 -13 17 3 33 -1 42 -10 8 -7 13 -15
11 -17 -2 -1 -49 -33 -104 -71 -119 -81 -228 -169 -305 -245 -102 -100 -299
-355 -395 -510 l-55 -90 0 -515 0 -515 1750 0 1750 0 0 161 c0 193 -15 300
-76 554 -84 349 -105 463 -94 498 9 29 9 29 6 4 -2 -15 0 -27 4 -27 4 0 10
-15 13 -33 20 -113 100 -459 126 -546 53 -177 71 -285 78 -453 l6 -158 203 0
c112 0 204 4 204 9 0 18 -57 134 -62 125 -3 -5 -3 -3 -1 5 2 7 -1 19 -5 25 -5
6 -12 24 -16 40 -4 17 -16 42 -26 56 -12 17 -17 35 -13 50 5 17 3 21 -6 15
-10 -5 -11 -2 -6 14 4 12 2 21 -4 21 -6 0 -7 7 -4 17 5 12 3 14 -7 8 -9 -5
-11 -4 -6 4 4 6 2 27 -4 47 -7 19 -10 37 -8 40 3 2 22 -42 43 -99 21 -56 65
-159 97 -228 32 -69 58 -131 58 -137 0 -9 59 -12 225 -12 124 0 225 1 225 3 0
1 -7 26 -14 55 l-14 53 38 15 c45 18 54 36 40 82 -7 27 -5 40 10 65 33 53 27
73 -22 80 -24 3 -44 4 -47 2 -2 -2 7 -45 20 -94 23 -90 23 -91 4 -105 -39 -30
-50 -20 -90 82 -21 53 -52 110 -67 126 l-29 29 23 24 c18 19 20 28 12 51 -7
21 -16 27 -39 27 -24 0 -31 -5 -33 -23 -3 -19 -6 -21 -18 -11 -23 19 -17 77
11 104 31 32 69 32 112 -1 27 -21 31 -28 23 -44 -16 -30 -12 -48 15 -66 20
-13 28 -14 40 -4 21 18 19 37 -8 63 -13 12 -36 43 -52 68 -35 56 -70 79 -122
79 -46 -1 -107 -22 -133 -45 -19 -17 -22 -15 -80 35 -33 28 -80 74 -104 101
-51 57 -126 196 -154 289 -21 66 -39 204 -25 184 14 -20 109 -63 200 -90 78
-24 108 -27 263 -30 199 -4 328 7 421 36 61 19 203 98 224 125 12 14 50 -47
205 -330 52 -93 103 -185 113 -203 l20 -34 -52 27 c-95 50 -181 44 -240 -17
-29 -30 -69 -113 -59 -123 3 -3 10 12 16 34 17 55 78 108 136 116 69 11 111
-1 169 -48 67 -54 139 -192 145 -277 6 -94 -54 -155 -117 -118 -25 14 -26 17
-23 101 l3 88 -34 34 c-52 52 -114 48 -143 -7 -23 -44 -11 -91 36 -137 46 -46
57 -79 41 -132 -33 -109 -137 -58 -201 99 -10 26 -19 40 -19 32 -1 -24 64
-153 86 -173 11 -10 36 -20 56 -24 29 -4 40 -1 61 20 50 50 46 125 -9 186 -45
50 -52 80 -25 114 48 60 139 15 126 -63 -20 -125 -21 -117 17 -155 25 -25 44
-35 66 -35 48 0 91 54 91 116 0 50 17 21 44 -78 16 -57 34 -141 40 -188 l12
-85 202 -3 202 -2 0 70 c0 40 -6 86 -15 107 -8 20 -22 63 -31 96 -8 33 -26 82
-40 108 -15 30 -24 65 -24 94 0 45 -18 122 -66 281 -13 44 -24 91 -24 105 -1
13 -7 40 -14 59 -8 19 -25 65 -38 101 -13 36 -49 101 -79 145 -74 105 -92 153
-84 219 12 94 -34 207 -126 311 -52 59 -59 72 -59 109 0 34 5 45 29 63 30 22
61 102 61 158 0 15 8 36 18 47 18 20 34 142 33 241 -1 31 5 59 16 75 21 32 33
114 38 249 1 57 8 123 15 147 9 32 9 48 0 64 -8 17 -8 31 0 57 9 26 9 47 1 77
-6 23 -10 62 -9 87 1 58 -7 121 -27 190 -9 30 -20 97 -26 149 -5 51 -18 131
-28 177 -10 46 -16 86 -12 88 3 2 19 6 34 10 38 9 62 66 93 219 26 133 28 149
14 127 -5 -8 -24 -75 -41 -148 -33 -139 -47 -167 -90 -177 -25 -6 -26 -3 -47
72 -12 43 -27 137 -33 210 -13 132 -13 133 12 182 13 28 26 50 30 51 3 0 36
-10 75 -23 59 -20 72 -29 89 -60 23 -43 63 -58 82 -31 19 26 16 54 -6 54 -10
0 -48 14 -83 30 -78 36 -345 104 -474 121 -73 9 -108 9 -155 0 -72 -15 -90 -9
-25 8 86 21 225 10 394 -33 91 -23 93 -23 103 -4 6 10 8 31 4 47 -3 15 1 43
10 64 8 20 15 62 15 94 0 32 4 63 8 69 4 6 30 23 57 37 133 67 299 317 336
505 15 78 7 253 -15 337 -39 145 -118 252 -247 335 -217 139 -446 204 -764
217 l-159 6 -31 32 c-16 18 -53 44 -81 58 -119 60 -416 148 -496 146 -24 0
-72 -9 -108 -18z m219 -132 c41 -55 58 -108 40 -120 -8 -5 -25 -8 -38 -7 -19
2 -27 12 -36 45 -7 23 -22 57 -34 76 -27 44 -27 47 9 47 23 0 36 -9 59 -41z
m-120 16 c28 -14 63 -73 76 -127 6 -24 3 -28 -27 -36 -29 -7 -33 -6 -36 12 -8
62 -26 106 -42 106 -16 0 -16 -3 1 -57 11 -31 19 -62 19 -68 0 -12 -29 -25
-56 -25 -13 0 -34 87 -34 145 0 62 39 82 99 50z m214 -54 c26 -35 47 -65 45
-66 -2 -1 -20 -5 -40 -9 -28 -5 -38 -3 -38 6 0 7 -13 41 -30 76 -30 63 -30 63
-7 60 13 -2 40 -28 70 -67z m-370 41 c15 -16 57 -155 57 -187 0 -6 -18 -18
-40 -25 -37 -12 -41 -12 -60 11 l-21 24 6 -32 c6 -28 3 -34 -24 -47 l-29 -16
-15 43 c-17 46 -23 31 -8 -19 8 -28 6 -33 -23 -49 -142 -83 -428 -348 -536
-497 -30 -42 -58 -77 -62 -77 -4 -1 -10 16 -14 37 -4 20 -15 57 -26 80 -10 24
-28 107 -40 184 -19 122 -20 149 -10 219 18 128 31 131 32 7 0 -131 56 -438
79 -438 4 0 45 43 91 96 47 53 111 118 142 146 l57 49 -34 44 c-18 24 -42 72
-53 107 -45 142 -38 174 47 212 32 14 66 26 75 26 19 0 42 -34 49 -76 5 -28 3
-33 -24 -45 -26 -10 -32 -10 -39 2 -5 7 -11 11 -14 8 -7 -7 20 -114 37 -142
12 -22 12 -22 15 6 2 19 11 31 29 38 31 12 40 6 48 -31 4 -17 13 -30 21 -30
18 0 18 -1 -5 51 -30 70 -55 181 -47 213 5 20 19 33 52 48 57 25 85 18 107
-24 l18 -33 -5 37 c-3 26 0 43 10 53 22 22 34 19 72 -17 l33 -33 -10 28 c-15
40 -14 46 12 57 31 12 32 12 50 -8z m438 8 c19 -6 46 -21 59 -35 l23 -25 -32
0 c-41 0 -31 -17 15 -26 46 -8 26 -24 -31 -24 -38 0 -43 3 -77 55 -42 64 -33
76 43 55z m170 -62 l64 -33 -44 -3 c-39 -3 -48 1 -80 32 -45 46 -26 47 60 4z
m-1531 -344 c-11 -32 -23 -99 -27 -149 -3 -49 -12 -107 -20 -129 -7 -21 -13
-55 -13 -74 0 -33 -46 -119 -58 -108 -13 14 74 407 109 485 27 62 33 46 9 -25z
m1598 -371 c-21 -2 -57 -2 -80 0 -24 2 -7 4 37 4 44 0 63 -2 43 -4z m-165 -10
c-7 -2 -21 -2 -30 0 -10 3 -4 5 12 5 17 0 24 -2 18 -5z m-80 -10 c-7 -2 -19
-2 -25 0 -7 3 -2 5 12 5 14 0 19 -2 13 -5z m-56 -9 c-3 -3 -12 -4 -19 -1 -8 3
-5 6 6 6 11 1 17 -2 13 -5z m457 -33 c146 -39 253 -114 360 -255 56 -72 76
-120 129 -306 20 -67 29 -86 45 -88 22 -3 24 -9 52 -141 25 -119 26 -135 3
-122 -62 33 -155 53 -263 58 -63 2 -125 9 -137 15 -12 6 -29 8 -39 4 -14 -5
-16 -15 -10 -60 l6 -54 -36 -17 c-30 -14 -45 -15 -98 -6 -35 6 -85 11 -112 11
-35 0 -45 3 -34 10 12 8 9 10 -14 10 -17 0 -42 12 -61 29 -108 94 -479 160
-825 146 -96 -3 -186 -7 -200 -8 -20 -2 -27 -9 -34 -39 -5 -21 -7 -40 -4 -43
3 -3 33 -11 67 -17 56 -11 63 -10 83 9 22 20 61 43 72 43 3 0 6 -11 6 -25 l0
-25 203 0 c191 -1 473 -20 497 -35 6 -4 18 -1 26 6 12 10 22 7 57 -17 23 -16
56 -49 75 -73 l33 -44 63 2 c40 1 78 -4 101 -13 50 -21 72 -20 80 4 3 11 20
29 36 41 27 19 31 20 42 6 7 -10 42 -20 87 -26 41 -6 133 -21 204 -34 l129
-22 3 -110 c3 -137 18 -230 49 -306 17 -44 20 -59 10 -59 -45 0 -317 42 -357
56 -51 17 -99 57 -124 105 -8 16 -31 78 -50 137 -43 127 -50 142 -69 142 -21
0 -19 -14 16 -126 40 -132 69 -252 69 -291 0 -18 5 -33 10 -33 16 0 32 51 28
88 -5 39 1 40 32 7 13 -14 46 -33 74 -44 62 -23 279 -61 348 -61 49 0 49 0 69
-45 32 -73 47 -170 46 -310 0 -123 -1 -125 -7 -45 -3 47 -7 71 -8 55 -3 -48
-20 -96 -41 -119 -11 -12 -20 -25 -20 -31 -1 -5 -4 -10 -8 -10 -5 -1 -24 -11
-43 -23 -19 -12 -52 -27 -72 -34 -21 -6 -38 -16 -38 -21 0 -5 -11 7 -25 28
-25 37 -26 38 -10 90 22 79 19 97 -28 161 -56 76 -96 115 -177 172 -36 26 -69
52 -73 59 -12 19 -29 16 -89 -14 -36 -19 -67 -27 -98 -26 -67 2 -86 4 -72 10
21 8 13 40 -18 67 -39 32 -108 43 -157 25 -51 -20 -54 -39 -6 -41 l38 -1 -35
-4 c-22 -3 -38 0 -45 10 -6 8 -19 16 -30 18 -12 3 -21 14 -23 27 -6 38 -28 32
-294 -90 -108 -50 -214 -104 -234 -122 -32 -27 -37 -38 -38 -75 -1 -29 4 -46
13 -49 10 -3 12 4 6 36 -6 39 -5 41 37 70 76 52 394 202 429 202 9 0 29 -16
43 -35 15 -19 36 -35 47 -35 10 0 19 -3 19 -7 0 -12 -93 -47 -260 -98 -169
-51 -232 -79 -269 -119 -22 -23 -23 -31 -19 -98 6 -76 44 -185 79 -222 17 -18
18 -17 48 43 18 35 41 66 54 71 12 5 117 34 233 65 180 47 216 53 242 44 28
-9 38 -6 97 26 l66 37 29 -27 c21 -20 35 -26 52 -22 16 4 30 -1 48 -17 14 -12
54 -33 90 -45 107 -38 131 -59 89 -81 -16 -9 -41 -6 -117 14 -149 38 -247 49
-405 43 -113 -4 -159 -10 -228 -30 -47 -14 -95 -23 -107 -20 -29 7 -29 -17 1
-44 27 -24 152 -105 205 -132 99 -50 282 -74 372 -48 68 20 164 77 236 141 30
26 54 42 54 35 0 -7 -8 -36 -17 -66 -22 -69 -9 -86 39 -52 30 21 28 18 -15
-33 -48 -56 -48 -58 -36 -93 10 -27 10 -38 1 -47 -15 -15 -16 -54 -2 -63 16
-10 12 -19 -20 -37 -23 -13 -30 -24 -30 -48 0 -50 -16 -70 -55 -70 -42 0 -47
22 -10 46 14 9 25 22 25 29 0 6 -27 34 -59 62 l-60 50 49 48 c27 27 47 51 45
53 -3 3 -22 -7 -44 -22 -49 -34 -149 -66 -206 -66 -24 0 -79 7 -122 15 -43 8
-86 15 -97 15 -31 0 -1 -26 59 -50 30 -12 55 -24 55 -27 0 -13 -64 -94 -99
-126 -47 -42 -56 -44 -91 -17 -35 27 -56 25 -112 -11 -27 -17 -52 -28 -56 -24
-4 4 -6 54 -6 112 2 91 -1 108 -17 124 -22 22 -24 38 -7 75 10 22 10 28 -6 39
-12 9 -16 20 -11 35 5 15 -2 30 -24 55 -16 19 -33 30 -36 25 -3 -6 -14 -10
-23 -10 -9 0 -29 -6 -44 -14 -34 -18 -34 -18 -98 117 l-50 107 -42 0 c-24 0
-63 9 -87 20 -24 11 -53 20 -66 20 -13 0 -30 10 -39 25 -20 30 -35 31 -69 5
-14 -11 -28 -20 -30 -20 -3 0 -13 24 -21 53 -18 64 -52 110 -75 104 -11 -2
-16 3 -17 17 -1 12 -15 75 -32 141 -46 177 -62 282 -68 455 -6 154 -6 155 24
240 17 46 29 87 26 91 -2 4 16 12 41 19 25 7 49 18 54 24 16 20 17 51 1 63
-13 10 -8 19 35 63 28 28 74 62 103 77 l52 25 0 63 c0 108 87 320 152 368 80
60 302 143 493 183 141 31 343 28 469 -5z m93 23 c-3 -3 -12 -4 -19 -1 -8 3
-5 6 6 6 11 1 17 -2 13 -5z m234 -141 c13 -16 12 -17 -3 -4 -10 7 -18 15 -18
17 0 8 8 3 21 -13z m-2219 -127 c-2 -35 1 -80 8 -100 9 -29 9 -40 0 -51 -20
-25 -27 -18 -39 43 -8 42 -8 68 0 97 11 38 27 75 32 75 2 0 1 -29 -1 -64z
m448 -159 c0 -2 -10 -12 -22 -23 l-23 -19 19 23 c18 21 26 27 26 19z m-103
-95 c-27 -27 -37 -47 -39 -72 l-1 -35 -4 34 c-4 28 2 40 33 72 21 22 40 39 43
39 3 0 -12 -17 -32 -38z m-349 -213 c10 -27 -5 -72 -22 -66 -6 2 -19 25 -29
51 -18 49 -13 99 16 151 10 17 13 10 19 -46 4 -36 12 -77 16 -90z m294 44 c-3
-27 -8 -49 -13 -51 -4 -2 -6 -9 -3 -16 3 -7 -6 -21 -18 -32 l-23 -19 20 23
c19 22 19 25 2 37 -23 17 -22 28 3 20 17 -5 20 -2 20 24 0 27 -4 31 -26 31
-14 0 -23 4 -19 10 3 6 17 8 31 6 13 -3 24 0 24 5 0 5 2 9 4 9 2 0 1 -21 -2
-47z m-46 -135 c15 9 34 -1 34 -19 0 -14 5 -19 14 -16 8 3 32 8 53 11 37 6 37
6 8 -5 -16 -6 -72 -29 -123 -51 -109 -48 -136 -44 -33 4 48 22 71 39 71 51 0
20 -11 22 -28 5 -9 -9 -12 -9 -12 2 0 7 -8 23 -17 34 l-18 21 24 -20 c13 -11
25 -19 27 -17z m284 13 c-8 -5 -37 -12 -65 -15 l-50 -5 40 14 c46 16 100 20
75 6z m-430 -155 c0 -2 -8 -10 -17 -17 -16 -13 -17 -12 -4 4 13 16 21 21 21
13z m197 -14 c-10 -10 -17 -25 -18 -33 0 -11 -2 -11 -6 -1 -5 12 23 52 35 52
3 0 -2 -8 -11 -18z m-30 -104 c-3 -7 -5 -2 -5 12 0 14 2 19 5 13 2 -7 2 -19 0
-25z m-246 -19 c39 -27 60 -100 54 -187 -5 -60 -15 -120 -46 -259 -5 -23 -9
-64 -9 -92 0 -27 -9 -78 -20 -113 -11 -34 -20 -78 -20 -96 0 -45 -30 -77 -65
-68 -20 5 -25 4 -20 -6 4 -7 -1 -4 -9 6 -22 27 -20 58 5 117 l22 50 25 -23 24
-23 -22 44 c-12 23 -17 40 -11 36 6 -3 11 1 11 11 0 16 1 16 19 0 28 -26 34
-4 11 45 -27 59 -25 70 19 179 54 131 37 143 -49 34 -5 -7 -6 -15 -3 -18 4 -3
1 -6 -5 -6 -6 0 -9 -7 -5 -17 5 -12 3 -14 -7 -8 -10 6 -12 4 -7 -9 4 -9 3 -15
-2 -11 -5 3 -16 -14 -24 -37 -12 -34 -16 -38 -16 -18 -1 14 15 70 34 125 43
124 47 193 8 154 -7 -7 -15 9 -27 55 -22 89 -21 100 15 130 37 32 80 34 120 5z
m330 -156 c13 -16 12 -17 -3 -4 -10 7 -18 15 -18 17 0 8 8 3 21 -13z m-35
-168 c13 -156 21 -174 72 -176 30 -2 32 -3 10 -6 -16 -2 -28 -6 -28 -7 0 -17
65 -154 77 -163 9 -7 14 -13 10 -13 -22 0 102 -207 132 -218 9 -3 22 -14 29
-24 17 -24 37 -23 73 3 28 19 31 20 54 5 13 -9 34 -16 47 -15 27 1 144 -41
190 -68 23 -13 32 -26 30 -39 -9 -49 -51 -57 -127 -24 -26 11 -65 20 -88 20
-24 0 -48 7 -59 17 -18 16 -21 16 -49 -1 -38 -22 -52 -17 -84 34 -18 28 -32
40 -49 40 -18 0 -30 13 -55 60 -19 35 -43 64 -59 72 -39 19 -52 53 -52 138 0
86 -19 136 -76 205 -38 47 -40 54 -48 208 -5 87 -5 88 17 85 21 -3 23 -11 33
-133z m125 -152 c13 -17 13 -17 -6 -3 -11 8 -22 16 -24 17 -2 2 0 3 6 3 6 0
17 -8 24 -17z m-544 -30 c-3 -10 -5 -4 -5 12 0 17 2 24 5 18 2 -7 2 -21 0 -30z
m1674 -50 c13 -16 12 -17 -3 -4 -17 13 -22 21 -14 21 2 0 10 -8 17 -17z m182
-11 c3 -4 -18 -8 -46 -8 -51 -2 -51 -2 -12 6 22 4 43 8 47 9 4 0 9 -2 11 -7z
m-1276 -34 c-3 -8 -6 -5 -6 6 -1 11 2 17 5 13 3 -3 4 -12 1 -19z m1600 16 c-3
-3 -12 -4 -19 -1 -8 3 -5 6 6 6 11 1 17 -2 13 -5z m-338 -18 c-8 -8 -88 -10
-95 -3 -4 4 17 7 46 7 29 0 51 -2 49 -4z m498 -118 c117 -116 123 -124 123
-162 l0 -41 -18 35 c-9 19 -34 52 -55 73 -42 42 -165 126 -216 146 -29 13 -30
15 -14 28 16 12 14 14 -24 11 -23 -2 -39 0 -37 4 3 5 28 8 55 8 31 0 48 4 44
10 -3 6 -1 10 6 10 7 0 68 -55 136 -122z m-427 77 c13 -14 21 -25 18 -25 -2 0
-15 11 -28 25 -13 14 -21 25 -18 25 2 0 15 -11 28 -25z m67 9 c-3 -3 -12 -4
-19 -1 -8 3 -5 6 6 6 11 1 17 -2 13 -5z m103 -41 c0 -3 -7 -3 -15 1 -8 3 -15
1 -15 -4 0 -6 -5 -10 -11 -10 -8 0 -8 4 1 14 10 13 40 12 40 -1z m-70 -12 c0
-5 -9 -7 -20 -4 -11 3 -20 7 -20 9 0 2 9 4 20 4 11 0 20 -4 20 -9z m-37 -18
c-7 -2 -21 -2 -30 0 -10 3 -4 5 12 5 17 0 24 -2 18 -5z m61 -326 c38 -7 71
-17 73 -23 2 -6 -4 -21 -14 -32 -37 -44 -217 -52 -386 -16 -84 17 -107 29
-107 54 0 19 13 24 100 34 54 6 257 -4 334 -17z m606 9 c0 -2 -8 -10 -17 -17
-16 -13 -17 -12 -4 4 13 16 21 21 21 13z m-2893 -158 c51 -18 95 -39 98 -47 4
-10 -2 -12 -27 -7 -18 3 -94 9 -170 12 l-136 7 -44 -46 c-39 -43 -51 -48 -140
-71 -53 -14 -137 -46 -187 -71 -100 -50 -111 -53 -111 -28 0 59 129 136 257
154 77 10 113 30 113 64 0 17 33 45 66 55 16 4 65 9 109 9 66 1 96 -4 172 -31z
m2523 -218 c0 -5 -4 -10 -10 -10 -5 0 -10 5 -10 10 0 6 5 10 10 10 6 0 10 -4
10 -10z m-1430 -57 c0 -14 -122 -418 -131 -433 -6 -10 -8 -2 -9 27 0 61 111
413 131 413 5 0 9 -3 9 -7z m-1766 -84 c-10 -12 -63 -55 -117 -96 -147 -112
-151 -140 -28 -183 39 -14 69 -29 65 -33 -12 -12 -69 -8 -115 8 -53 19 -87 49
-106 93 -12 30 -12 37 2 59 9 14 42 36 73 50 117 50 189 86 213 104 32 25 36
24 13 -2z m1910 -121 c-38 -183 -95 -411 -108 -435 l-15 -28 -1 47 c0 43 82
393 109 461 19 49 29 20 15 -45z m226 -263 c0 -14 -123 -382 -131 -390 -23
-24 -4 59 51 217 33 95 60 174 60 175 0 2 5 3 10 3 6 0 10 -2 10 -5z m-2140
-60 c0 -12 18 -15 103 -15 62 0 112 -5 127 -13 49 -25 37 -41 -82 -108 -62
-35 -187 -119 -278 -187 -90 -69 -174 -129 -186 -134 -35 -16 -54 -3 -54 37 0
19 -2 35 -4 35 -13 0 -192 -55 -251 -77 -119 -44 -353 -160 -439 -217 -112
-75 -236 -221 -391 -461 -144 -222 -167 -256 -172 -251 -3 3 28 69 69 148 290
557 527 773 1166 1063 96 43 219 105 275 136 56 32 105 58 110 59 4 0 7 -7 7
-15z m1630 -844 c0 -6 -4 -13 -10 -16 -5 -3 -10 1 -10 9 0 9 5 16 10 16 6 0
10 -4 10 -9z m-3 -73 c-3 -8 -6 -5 -6 6 -1 11 2 17 5 13 3 -3 4 -12 1 -19z
m20 -10 c-3 -8 -6 -5 -6 6 -1 11 2 17 5 13 3 -3 4 -12 1 -19z m-10 -40 c-3 -8
-6 -5 -6 6 -1 11 2 17 5 13 3 -3 4 -12 1 -19z m1226 -15 c-7 -2 -19 -2 -25 0
-7 3 -2 5 12 5 14 0 19 -2 13 -5z m1010 -380 c-7 -2 -13 -12 -13 -20 0 -9 -3
-14 -6 -10 -10 10 4 37 18 36 10 0 10 -2 1 -6z m47 -128 c12 -44 34 -105 49
-135 19 -37 30 -78 35 -125 3 -38 8 -83 11 -100 2 -16 -5 -1 -16 35 -11 36
-40 123 -65 195 -25 72 -45 136 -46 143 -1 6 -5 12 -9 12 -4 0 -3 14 3 31 6
16 12 29 13 27 2 -2 13 -39 25 -83z m-1878 3 c-7 -7 -12 -8 -12 -2 0 14 12 26
19 19 2 -3 -1 -11 -7 -17z m75 -200 c-3 -8 -6 -5 -6 6 -1 11 2 17 5 13 3 -3 4
-12 1 -19z m593 -3 c0 -8 -4 -15 -10 -15 -5 0 -10 7 -10 15 0 8 5 15 10 15 6
0 10 -7 10 -15z m-110 -25 c0 -5 -4 -10 -10 -10 -5 0 -10 5 -10 10 0 6 5 10
10 10 6 0 10 -4 10 -10z m1489 -410 l-1 -45 -9 40 c-5 22 -14 44 -19 49 -6 6
-10 26 -9 46 l1 35 19 -40 c10 -22 18 -60 18 -85z m-22 -32 c-3 -7 -5 -2 -5
12 0 14 2 19 5 13 2 -7 2 -19 0 -25z"/>
<path d="M3511 5913 c17 -93 40 -146 53 -125 8 13 -42 172 -53 172 -5 0 -4
-21 0 -47z"/>
<path d="M3611 5944 c0 -11 3 -14 6 -6 3 7 2 16 -1 19 -3 4 -6 -2 -5 -13z"/>
<path d="M3675 4522 c-30 -17 -29 -17 100 -24 248 -13 427 -43 510 -84 28 -14
31 -14 48 7 9 11 17 30 17 41 0 18 -5 19 -48 13 -40 -5 -52 -3 -75 15 -15 12
-35 19 -43 16 -9 -3 -47 3 -85 15 -58 18 -74 19 -98 9 -21 -8 -39 -9 -67 -1
-63 18 -224 13 -259 -7z"/>
<path d="M4608 4293 c6 -2 18 -2 25 0 6 3 1 5 -13 5 -14 0 -19 -2 -12 -5z"/>
<path d="M4658 4283 c6 -2 18 -2 25 0 6 3 1 5 -13 5 -14 0 -19 -2 -12 -5z"/>
<path d="M4000 4273 c-60 -9 -254 -55 -269 -63 -21 -11 -77 -70 -67 -70 4 0
23 12 41 26 30 22 117 54 153 54 7 0 12 -13 12 -34 0 -30 -4 -35 -27 -39 -16
-2 51 -4 147 -4 96 0 157 3 136 6 -40 6 -40 6 -41 53 -1 55 -6 55 110 7 79
-33 93 -35 75 -14 -16 19 -154 71 -205 77 -22 3 -51 3 -65 1z m55 -68 l0 -40
-74 -3 c-78 -3 -91 3 -91 44 0 33 48 39 62 8 12 -25 33 -30 57 -15 10 7 11 13
1 30 -11 21 -10 22 17 19 26 -3 28 -7 28 -43z"/>
<path d="M3425 4187 c-4 -21 -5 -63 -3 -93 6 -66 45 -128 102 -160 92 -52 461
-95 635 -75 150 18 186 45 235 175 34 89 33 95 -4 22 -42 -83 -77 -126 -115
-142 -101 -42 -491 -27 -678 26 -44 13 -102 61 -124 103 -8 17 -21 65 -28 106
-12 73 -12 75 -20 38z"/>
<path d="M4789 4169 c-32 -19 -36 -26 -35 -58 l1 -37 158 -43 c87 -23 161 -41
163 -38 2 2 -25 12 -60 21 l-64 18 16 41 c9 23 16 43 17 45 7 10 84 -37 116
-71 47 -51 51 -42 7 19 -26 37 -44 49 -109 74 -64 24 -149 49 -169 50 -3 0
-21 -10 -41 -21z m50 -16 c-1 -5 2 -18 6 -31 10 -32 51 -27 48 6 -2 15 3 22
15 22 40 0 55 -47 27 -84 -15 -20 -30 -19 -117 5 -33 8 -38 14 -38 39 0 17 7
33 18 39 20 12 42 14 41 4z"/>
<path d="M2630 4074 c-14 -35 3 -56 34 -44 13 4 29 4 36 0 8 -5 17 -7 21 -4 4
2 10 0 14 -6 11 -17 25 -11 25 10 0 32 -47 70 -87 70 -27 0 -35 -5 -43 -26z"/>
<path d="M1026 2143 l-15 -28 -1 25 c0 21 -2 22 -10 8 -6 -9 -9 -27 -8 -40 4
-30 -26 -31 -30 0 -4 26 -14 28 -32 7 -10 -12 -10 -19 -2 -27 17 -17 15 -26
-9 -39 -21 -11 -22 -10 -16 25 7 41 -14 51 -33 16 -7 -14 -7 -20 0 -20 5 0 10
-9 10 -19 0 -31 19 -35 46 -10 13 12 24 17 24 11 0 -8 15 -5 43 10 23 12 73
33 111 47 93 35 100 58 8 27 l-70 -24 8 29 c11 37 -5 38 -24 2z"/>
<path d="M450 1775 c0 -11 -7 -14 -24 -9 -28 7 -32 2 -41 -49 l-7 -38 32 3
c37 3 55 28 21 28 -14 0 -21 6 -21 20 0 11 4 20 8 20 5 0 17 -9 27 -20 17 -19
45 -27 45 -13 0 4 -5 22 -12 40 -12 34 -28 44 -28 18z"/>
<path d="M327 1700 c-12 -19 -23 -27 -33 -23 -21 8 -34 -14 -34 -55 0 -62 32
-91 61 -55 13 15 12 15 -8 4 -19 -10 -23 -9 -23 4 0 8 9 23 20 32 11 10 20 30
20 45 0 15 5 30 10 33 7 4 8 -7 4 -32 -5 -30 -2 -42 12 -53 16 -13 17 -13 12
1 -4 9 2 23 13 32 10 9 19 22 19 28 0 8 -4 8 -15 -1 -13 -11 -15 -7 -15 29 0
49 -18 54 -43 11z m-17 -61 c0 -5 -7 -9 -15 -9 -9 0 -15 9 -15 21 0 18 2 19
15 9 8 -7 15 -16 15 -21z"/>
<path d="M4606 661 c-13 -15 -26 -18 -56 -14 -33 5 -40 2 -55 -21 -27 -42 -13
-86 47 -146 28 -28 65 -58 81 -66 26 -14 31 -14 47 1 10 9 28 41 40 71 27 67
21 110 -22 159 -34 39 -57 44 -82 16z m-59 -138 c-3 -10 -5 -2 -5 17 0 19 2
27 5 18 2 -10 2 -26 0 -35z"/>
<path d="M4832 550 c0 -14 2 -19 5 -12 2 6 2 18 0 25 -3 6 -5 1 -5 -13z"/>
<path d="M4832 455 c0 -16 2 -22 5 -12 2 9 2 23 0 30 -3 6 -5 -1 -5 -18z"/>
<path d="M4841 404 c0 -11 3 -14 6 -6 3 7 2 16 -1 19 -3 4 -6 -2 -5 -13z"/>
</g>
</svg>
